<svg width="112" height="112" viewBox="0 0 112 112" fill="none" xmlns="http://www.w3.org/2000/svg">
<path fill-rule="evenodd" clip-rule="evenodd" d="M26.0113 21.8935C22.1232 25.1204 21.099 30.5825 19.0508 41.5066L15.5508 60.1734C12.6705 75.5347 11.2304 83.2151 15.4291 88.2742C19.6278 93.3333 27.4422 93.3333 43.0712 93.3333H68.9285C84.5576 93.3333 92.372 93.3333 96.5706 88.2742C100.769 83.2151 99.3295 75.5347 96.4492 60.1734L92.9492 41.5066C90.9006 30.5825 89.8767 25.1204 85.9884 21.8935C82.1002 18.6667 76.5431 18.6667 65.4285 18.6667H46.5712C35.4567 18.6667 29.8995 18.6667 26.0113 21.8935ZM46.0983 36.167C47.5416 40.2499 51.4355 43.1667 56.0019 43.1667C60.5682 43.1667 64.4621 40.2499 65.905 36.167C66.5495 34.3445 68.5491 33.3892 70.3715 34.0334C72.1938 34.6776 73.1491 36.6772 72.5051 38.4997C70.1045 45.2919 63.6267 50.1667 56.0019 50.1667C48.3765 50.1667 41.8991 45.2919 39.4985 38.4997C38.8543 36.6772 39.8095 34.6776 41.632 34.0334C43.4545 33.3892 45.4542 34.3445 46.0983 36.167Z" fill="#8CA89A"/>
<path d="M43 84.0588C43 83.0355 43.8296 82.2059 44.8529 82.2059H69.147C70.1704 82.2059 71 83.0355 71 84.0588C71 85.0822 70.1704 85.9118 69.147 85.9118H44.8529C43.8296 85.9118 43 85.0822 43 84.0588Z" fill="#2D494C"/>
<path d="M74.5 62.4412C68.9 68.3706 67.6372 78.6372 67.7059 83.0294H46.0882C47.5706 78.9117 45.0588 66.7647 43.6176 61.2059C47.9 61.0412 51.5784 69.6471 52.8823 73.9706C54.5294 72.1588 52.8823 59.902 51.8529 54C59.8823 54.6176 62.3529 76.0294 62.9706 77.2647C63.5882 78.5 65.0294 78.5 66.0588 77.2647C66.8823 76.2765 65.0294 69.5784 64 66.3529C72.4 58.6118 74.5 60.5196 74.5 62.4412Z" fill="#2D494C"/>
</svg>
